<mxfile host="app.diagrams.net" modified="2023-08-01T08:55:43.266Z" agent="Mozilla/5.0 (Windows NT 10.0; Win64; x64) AppleWebKit/537.36 (KHTML, like Gecko) Chrome/115.0.0.0 Safari/537.36" version="21.6.6" etag="qJBtiU4y9yOs_-snzEZq" type="github">
  <diagram name="第 1 页" id="e8LVc-mW7EgKkksgNd5i">
    <mxGraphModel>
      <root>
        <mxCell id="0" />
        <mxCell id="1" parent="0" />
      </root>
    </mxGraphModel>
  </diagram>
</mxfile>
